# xmcd
#
# Track frame offsets:
#  150
#  14690
#  29006
#  40420
#  54208
#  65471
#  76801
#  86399
#  97678
#  109341
#  119431
#  131182
#  142514
#  153593
#  165783
#  178416
#  190259
#  202370
#  213273
#  225375
#
# Disc length: 3155 seconds
#
# Revision: 0
# Processed by: cddbd v1.5.1PL2 Copyright (c) Steve Scherf et al.
# Submitted via: Collectorz.com_Music_Collector 6.9
#
DISCID=0d0c5114
DTITLE=Bob Wills - Papa's Jumpin CD 5
DYEAR=1998
DGENRE=Country
TTITLE0=Sittin' On Top Of The World
TTITLE1=Silver Bell
TTITLE2=The Last Goodbye
TTITLE3=Just To Be Loved
TTITLE4=Hubbin' It
TTITLE5=Send Me A Red Rose
TTITLE6=I Can't Stand This Loneliness
TTITLE7=3 Miles South Of Cash
TTITLE8=I'm All Alone
TTITLE9=Three Little Kittens
TTITLE10=Cause I'm In Love
TTITLE11=You Always Keep Me In Hot Water
TTITLE12=I Won't Be Back Tonight
TTITLE13=Charlie Changed His Mind
TTITLE14=I'm Only A Friend
TTITLE15=Steamboat Stomp
TTITLE16=I Want To Be Wanted
TTITLE17=Snatchin' And Grabbin'
TTITLE18=A Red Hot Needle
TTITLE19=Trouble, Trouble Blues
EXTD=
EXTT0=
EXTT1=
EXTT2=
EXTT3=
EXTT4=
EXTT5=
EXTT6=
EXTT7=
EXTT8=
EXTT9=
EXTT10=
EXTT11=
EXTT12=
EXTT13=
EXTT14=
EXTT15=
EXTT16=
EXTT17=
EXTT18=
EXTT19=
PLAYORDER=
